<svg xmlns="http://www.w3.org/2000/svg" width="2130" height="635" viewBox="0 0 2130 635" role="img" aria-labelledby="title desc">
<title id="title">Equipo y usuarios</title><desc id="desc">Modelo relacional. Flechas de tabla referenciada a tabla dependiente. Las cardinalidades y claves foráneas están detalladas en la tabla de relaciones del documento.</desc>
<defs><marker id="arrow" viewBox="0 0 10 10" refX="9" refY="5" markerWidth="7" markerHeight="7" orient="auto-start-reverse"><path d="M 0 0 L 10 5 L 0 10 z" fill="#087f72"/></marker></defs>
<rect width="100%" height="100%" fill="#fbfdfe"/>
<g font-family="Segoe UI, Arial, sans-serif"><text x="35" y="32" font-size="23" fill="#173047" text-anchor="start" font-weight="700">Equipo y usuarios</text><text x="35" y="57" font-size="13" fill="#173047" text-anchor="start" font-weight="400">PK primaria · FK foránea · U única · * obligatoria · G generada · I identidad</text><path d="M 385 184 H 440 V 504 H 605" fill="none" stroke="#087f72" stroke-width="1.6" marker-end="url(#arrow)"/><path d="M 385 504 H 462 V 531 H 605" fill="none" stroke="#087f72" stroke-width="1.6" marker-end="url(#arrow)"/><path d="M 385 202 H 484 V 184 H 605" fill="none" stroke="#087f72" stroke-width="1.6" marker-end="url(#arrow)"/><path d="M 385 522 H 506 V 211 H 605" fill="none" stroke="#087f72" stroke-width="1.6" marker-end="url(#arrow)"/><path d="M 955 184 H 1010 V 184 H 1175" fill="none" stroke="#087f72" stroke-width="1.6" marker-end="url(#arrow)"/><path d="M 1525 184 H 1602 V 184 H 1745" fill="none" stroke="#087f72" stroke-width="1.6" marker-end="url(#arrow)"/><path d="M 385 540 H 415 V 107 H 1560 V 211 H 1745" fill="none" stroke="#087f72" stroke-width="1.6" marker-end="url(#arrow)"/><rect x="435" y="487" width="152" height="18" rx="2" fill="#fbfdfe" stroke="#fbfdfe"/><text x="442" y="500" font-size="12" fill="#075f56" text-anchor="start" font-weight="400">R01 · 1 : 0..N</text><rect x="435" y="514" width="152" height="18" rx="2" fill="#fbfdfe" stroke="#fbfdfe"/><text x="442" y="527" font-size="12" fill="#075f56" text-anchor="start" font-weight="400">R02 · 1 : 0..N</text><rect x="435" y="167" width="152" height="18" rx="2" fill="#fbfdfe" stroke="#fbfdfe"/><text x="442" y="180" font-size="12" fill="#075f56" text-anchor="start" font-weight="400">R03 · 1 : 0..N</text><rect x="435" y="194" width="152" height="18" rx="2" fill="#fbfdfe" stroke="#fbfdfe"/><text x="442" y="207" font-size="12" fill="#075f56" text-anchor="start" font-weight="400">R04 · 0..1 : 0..N</text><rect x="1005" y="167" width="152" height="18" rx="2" fill="#fbfdfe" stroke="#fbfdfe"/><text x="1012" y="180" font-size="12" fill="#075f56" text-anchor="start" font-weight="400">R05 · 1 : 0..1</text><rect x="1575" y="167" width="152" height="18" rx="2" fill="#fbfdfe" stroke="#fbfdfe"/><text x="1582" y="180" font-size="12" fill="#075f56" text-anchor="start" font-weight="400">R06 · 1 : 0..N</text><rect x="1575" y="194" width="152" height="18" rx="2" fill="#fbfdfe" stroke="#fbfdfe"/><text x="1582" y="207" font-size="12" fill="#075f56" text-anchor="start" font-weight="400">R07 · 1 : 0..N</text><rect x="35" y="140" width="350" height="103" rx="10" fill="#fff" stroke="#d7e4e9"/><rect x="35" y="140" width="350" height="35" rx="8" fill="#173047" stroke="#173047"/><text x="48" y="164" font-size="16" fill="#fff" text-anchor="start" font-weight="600">departamentos</text><text x="48" y="197" font-size="12" fill="#173047" text-anchor="start" font-weight="400">departamento_id *</text><text x="373" y="197" font-size="11" fill="#087f72" text-anchor="end" font-weight="700">PK I</text><text x="48" y="221" font-size="12" fill="#173047" text-anchor="start" font-weight="400">nombre_departamento *</text><text x="373" y="221" font-size="11" fill="#087f72" text-anchor="end" font-weight="700">U</text><rect x="35" y="460" width="350" height="103" rx="10" fill="#fff" stroke="#d7e4e9"/><rect x="35" y="460" width="350" height="35" rx="8" fill="#173047" stroke="#173047"/><text x="48" y="484" font-size="16" fill="#fff" text-anchor="start" font-weight="600">roles</text><text x="48" y="517" font-size="12" fill="#173047" text-anchor="start" font-weight="400">rol_id *</text><text x="373" y="517" font-size="11" fill="#087f72" text-anchor="end" font-weight="700">PK I</text><text x="48" y="541" font-size="12" fill="#173047" text-anchor="start" font-weight="400">nombre_rol *</text><text x="373" y="541" font-size="11" fill="#087f72" text-anchor="end" font-weight="700">U</text><rect x="605" y="140" width="350" height="199" rx="10" fill="#fff" stroke="#d7e4e9"/><rect x="605" y="140" width="350" height="35" rx="8" fill="#173047" stroke="#173047"/><text x="618" y="164" font-size="16" fill="#fff" text-anchor="start" font-weight="600">empleados</text><text x="618" y="197" font-size="12" fill="#173047" text-anchor="start" font-weight="400">empleado_id *</text><text x="943" y="197" font-size="11" fill="#087f72" text-anchor="end" font-weight="700">PK I</text><text x="618" y="221" font-size="12" fill="#173047" text-anchor="start" font-weight="400">departamento_id *</text><text x="943" y="221" font-size="11" fill="#087f72" text-anchor="end" font-weight="700">FK</text><text x="618" y="245" font-size="12" fill="#173047" text-anchor="start" font-weight="400">cedula *</text><text x="943" y="245" font-size="11" fill="#087f72" text-anchor="end" font-weight="700">U</text><text x="618" y="269" font-size="12" fill="#173047" text-anchor="start" font-weight="400">nombre *</text><text x="943" y="269" font-size="11" fill="#087f72" text-anchor="end" font-weight="700"></text><text x="618" y="293" font-size="12" fill="#173047" text-anchor="start" font-weight="400">telefono</text><text x="943" y="293" font-size="11" fill="#087f72" text-anchor="end" font-weight="700"></text><text x="618" y="317" font-size="12" fill="#173047" text-anchor="start" font-weight="400">rol_id</text><text x="943" y="317" font-size="11" fill="#087f72" text-anchor="end" font-weight="700">FK</text><rect x="605" y="460" width="350" height="103" rx="10" fill="#fff" stroke="#d7e4e9"/><rect x="605" y="460" width="350" height="35" rx="8" fill="#173047" stroke="#173047"/><text x="618" y="484" font-size="16" fill="#fff" text-anchor="start" font-weight="600">departamentos_roles</text><text x="618" y="517" font-size="12" fill="#173047" text-anchor="start" font-weight="400">departamento_id *</text><text x="943" y="517" font-size="11" fill="#087f72" text-anchor="end" font-weight="700">PK FK</text><text x="618" y="541" font-size="12" fill="#173047" text-anchor="start" font-weight="400">rol_id *</text><text x="943" y="541" font-size="11" fill="#087f72" text-anchor="end" font-weight="700">PK FK</text><rect x="1175" y="140" width="350" height="175" rx="10" fill="#fff" stroke="#d7e4e9"/><rect x="1175" y="140" width="350" height="35" rx="8" fill="#173047" stroke="#173047"/><text x="1188" y="164" font-size="16" fill="#fff" text-anchor="start" font-weight="600">usuarios</text><text x="1188" y="197" font-size="12" fill="#173047" text-anchor="start" font-weight="400">usuario_id *</text><text x="1513" y="197" font-size="11" fill="#087f72" text-anchor="end" font-weight="700">PK I</text><text x="1188" y="221" font-size="12" fill="#173047" text-anchor="start" font-weight="400">empleado_id *</text><text x="1513" y="221" font-size="11" fill="#087f72" text-anchor="end" font-weight="700">FK U</text><text x="1188" y="245" font-size="12" fill="#173047" text-anchor="start" font-weight="400">email *</text><text x="1513" y="245" font-size="11" fill="#087f72" text-anchor="end" font-weight="700">U</text><text x="1188" y="269" font-size="12" fill="#173047" text-anchor="start" font-weight="400">password_hash *</text><text x="1513" y="269" font-size="11" fill="#087f72" text-anchor="end" font-weight="700"></text><text x="1188" y="293" font-size="12" fill="#173047" text-anchor="start" font-weight="400">activo *</text><text x="1513" y="293" font-size="11" fill="#087f72" text-anchor="end" font-weight="700"></text><rect x="1745" y="140" width="350" height="103" rx="10" fill="#fff" stroke="#d7e4e9"/><rect x="1745" y="140" width="350" height="35" rx="8" fill="#173047" stroke="#173047"/><text x="1758" y="164" font-size="16" fill="#fff" text-anchor="start" font-weight="600">usuario_roles</text><text x="1758" y="197" font-size="12" fill="#173047" text-anchor="start" font-weight="400">usuario_id *</text><text x="2083" y="197" font-size="11" fill="#087f72" text-anchor="end" font-weight="700">PK FK</text><text x="1758" y="221" font-size="12" fill="#173047" text-anchor="start" font-weight="400">rol_id *</text><text x="2083" y="221" font-size="11" fill="#087f72" text-anchor="end" font-weight="700">PK FK</text></g></svg>